<svg viewBox="0 0 244 154" xmlns="http://www.w3.org/2000/svg" xmlns:xlink="http://www.w3.org/1999/xlink"><style>:root&amp;gt;svg{display:none}:root&amp;gt;svg:target{display:block}</style><svg viewBox="0 0 223 125" id="audio-small"><title>audio-small</title><g stroke="#6A6A6A" fill="none" fill-rule="evenodd"><path d="M150.15 31.872l.04-.68c.02-.445.073-1.114.168-2.012.205-1.765.595-4.365 1.734-7.57 1.154-3.16 3.148-7.02 6.785-10.345.475-.4.903-.803 1.444-1.22.45-.355.918-.717 1.495-1.107a25.912 25.912 0 0 1 3.442-2.03 33.703 33.703 0 0 1 8.043-2.81c2.884-.596 6.052-.894 9.142-.765 3.29.13 6.513.69 9.76 1.59 6.45 1.837 13.035 5.044 18.43 10.42.69.65 1.312 1.382 1.925 2.128.646.716 1.182 1.54 1.743 2.343.593.78 1.01 1.697 1.513 2.555l.18.327.046.082c-.044-.1.106.23.104.225l.064.153.26.612.524 1.23c.742 1.52 1.29 3.616 1.87 5.51.22.956.383 1.904.575 2.86l.273 1.435.147 1.45c.523 3.87.31 7.8-.113 11.684a53.987 53.987 0 0 1-2.856 11.392c-.328.927-.768 1.812-1.15 2.718-.384.905-.78 1.806-1.282 2.658l-1.425 2.588-1.66 2.45c-.526.835-1.153 1.6-1.793 2.353-.645.747-1.226 1.545-1.925 2.244-1.406 1.39-2.773 2.81-4.377 3.975-1.49 1.295-3.23 2.25-4.884 3.294-.484.294-.79.434-1.255.676l-1.248.625c-.8.395-1.55.774-2.244 1.163-1.402.77-2.48 1.608-3.142 2.517a4.82 4.82 0 0 0-.426.71c-.074.117-.103.256-.162.38a1.8 1.8 0 0 1-.07.163l-.103.312c-.238.732-.434 1.48-.62 2.275-.374 1.575-.666 3.25-1.03 4.98l-.295 1.317-.302 1.245a55.19 55.19 0 0 1-.732 2.585c-1.045 3.372-2.466 6.635-4.404 9.538-1.922 2.903-4.364 5.426-7.097 7.286-.363.24-.633.453-1.067.71l-.948.568c-.702.38-1.48.816-2.182 1.118a27.4 27.4 0 0 1-4.348 1.6c-5.82 1.623-11.738 1.266-16.336-.895-4.68-2.064-7.602-5.952-8.768-9.26-1.24-3.352-1.18-6.115-1.094-7.9.032-.904.17-1.582.227-2.04l.103-.69 1.293.084.058.665c.036.437.08 1.085.21 1.914.24 1.642.68 4.09 2.068 6.68 1.368 2.576 3.856 5.172 7.58 6.543 1.847.694 3.962 1.067 6.22 1.13 2.26.027 4.667-.284 7.068-1.005 4.823-1.43 9.548-4.544 12.58-9.41 1.55-2.412 2.72-5.21 3.592-8.22.223-.76.416-1.515.598-2.267l.272-1.223.24-1.175c.308-1.606.574-3.327.963-5.132.192-.895.432-1.834.724-2.767.3-.957.825-2.215 1.524-3.145 1.4-1.96 3.26-3.26 4.952-4.222a54.43 54.43 0 0 1 2.5-1.328l1.152-.59c.33-.176.836-.428 1.11-.615 1.372-.906 2.828-1.69 4.072-2.814 5.262-4.11 9.112-10.102 11.647-16.506a48.016 48.016 0 0 0 2.548-10.04c.373-3.417.584-6.877.128-10.235l-.118-1.263-.238-1.238c-.164-.82-.303-1.657-.482-2.458-.512-1.54-.74-2.97-1.535-4.683l-.506-1.235-.252-.616-.063-.156c-.024-.058.102.225.032.076l-.035-.064-.14-.255c-.394-.668-.682-1.388-1.157-2.013-.44-.64-.84-1.305-1.367-1.89-.487-.61-.98-1.213-1.547-1.757-4.377-4.51-10.158-7.498-15.836-9.184a39.9 39.9 0 0 0-8.41-1.536c-2.873-.208-5.493-.022-8.044.412-2.53.43-4.91 1.102-7.043 2.038a29.18 29.18 0 0 0-3.017 1.513 20.1 20.1 0 0 0-1.424.885c-.402.258-.84.605-1.253.895-3.253 2.537-5.378 5.63-6.787 8.368a38.47 38.47 0 0 0-2.62 6.773 33.46 33.46 0 0 0-.51 1.886c-.11.435-.165.66-.165.66l-1.28-.198zm41.932 19.424c.01-.02-.065-.308-.098-1.064-.04-.716.012-1.747.138-2.993.11-1.24.297-2.707.01-4.204a11.82 11.82 0 0 0-2.185-4.752c-.588-.748-1.28-1.458-2.094-2.034-.777-.58-1.83-1.074-2.73-1.348-1.996-.648-4.334-.624-6.493.04-1.08.333-2.114.834-3.026 1.487l-.655.52-.602.575c-.193.197-.355.42-.538.624l-.066.075-.017.02c.018-.02-.065.076.036-.043l-.04.052-.152.213-.306.424c-.253.427-.532.9-.77 1.447a11.75 11.75 0 0 0-.6 1.65c-.333 1.136-.503 2.354-.563 3.587-.132 2.462.284 5.017.918 7.532.645 2.546 1.51 5.106 2.293 7.738.777 2.61 1.532 5.367 1.728 8.316.095 1.47.057 2.99-.223 4.505a14.84 14.84 0 0 1-.58 2.24c-.12.366-.272.725-.414 1.08l-.265.544c-.068.135-.09.206-.198.397-.213.37-.44.753-.658 1.087-.193.277-.383.55-.57.822a23.79 23.79 0 0 1-1.156 1.443 25.474 25.474 0 0 1-2.34 2.38c-1.58 1.396-3.178 2.48-4.803 3.235-1.628.748-3.27 1.162-4.672 1.143-.627.05-1.263-.088-1.617-.128l-.57-.1a4.444 4.444 0 0 1-3.612-5.14 4.443 4.443 0 0 1 3.21-3.53l2.875-.777c.03-.008-.133-.036-.167.003-.07.057.244.074.9-.133.66-.213 1.66-.716 2.76-1.512.54-.405 1.124-.866 1.667-1.395.285-.26.534-.538.798-.814l.36-.416c.075-.096.127-.157.21-.232.036-.033.127-.207.19-.304l.105-.175.05-.087.027-.043.015-.022c-.037.073.098-.19-.078.157.068-.145.156-.283.225-.438a6.7 6.7 0 0 0 .374-1.008c.22-.728.34-1.598.372-2.568.07-1.945-.288-4.256-.803-6.808-.505-2.538-1.16-5.278-1.62-8.218a46.98 46.98 0 0 1-.293-2.262c-.046-.41-.08-.79-.1-1.128l-.04-.586-.027-.59a26.39 26.39 0 0 1 .236-4.764c.457-3.196 1.534-6.347 3.727-9.086l.347-.396.172-.196.043-.05c.113-.137.047-.054.08-.09l.028-.03.112-.11c.305-.293.596-.6.915-.87.325-.258.646-.524.977-.768l1.028-.667c1.404-.814 2.9-1.36 4.397-1.672 2.995-.614 6.03-.34 8.593.76 1.37.594 2.434 1.245 3.432 2.122.986.853 1.773 1.83 2.41 2.822a14.17 14.17 0 0 1 2.09 5.96c.176 1.955-.21 3.513-.422 4.726-.237 1.214-.366 2.134-.39 2.752-.035.576.01.993 0 .975a.65.65 0 0 1-.598.697.65.65 0 0 1-.695-.6z" stroke-width="5" fill="#6A6A6A"/><path d="M28.118 79.09a47.782 47.782 0 0 1-.434-6.436c0-26.18 21.236-47.405 47.43-47.405 2.186 0 4.335.147 6.44.432L96.19 11.056c10.344 11.357 16.65 26.452 16.65 43.02C112.84 89.38 84.204 118 48.88 118c-16.575 0-31.68-6.303-43.04-16.642L28.12 79.09z" stroke-width="10" stroke-linecap="round" stroke-linejoin="round"/></g></svg><svg viewBox="0 0 238 154" id="cognitive-small"><title>cognitive-small</title><path d="M63.366 138.817c-9.66-15.516 6.345-76.743 0-123.012C62.386 8.67 60.054 5 55.636 5c-4.414 0-6.623 5.263-6.623 11.636 0 6.374 3.864 31.86-2.76 34.633C39.632 54.04 25.42 2.037 13.138 6.66c-8.832 3.325 17.94 50.425 17.94 50.425S9.272 56.257 5.96 69.555C2.65 82.853 12.863 102.8 18.934 116.93c6.07 14.13 2.208 9.695 0 21.887-2.21 12.19 54.09 15.516 44.433 0zM150.08 19.42c-5.66 0-10.402 4.212-11.744 9.898a11.286 11.286 0 0 0-4.916-1.134c-6.703 0-12.137 5.895-12.137 13.166 0 .743.07 1.467.18 2.177-.054 0-.105-.01-.16-.01-6.702 0-12.137 5.896-12.137 13.167 0 2.938.898 5.64 2.397 7.83-4.1 2.115-6.94 6.635-6.94 11.886 0 5.656 3.294 10.464 7.91 12.328-1.783 2.292-2.86 5.25-2.86 8.482 0 6.778 4.72 12.354 10.79 13.08a14.29 14.29 0 0 0-.19 2.254c0 7.272 5.435 13.167 12.138 13.167 2.107 0 4.087-.583 5.814-1.607 1.182 5.927 6.04 10.37 11.856 10.37 6.703 0 12.137-5.895 12.137-13.166v-88.72c0-7.27-5.434-13.166-12.137-13.166zm37.863 0c5.66 0 10.402 4.212 11.744 9.898a11.286 11.286 0 0 1 4.916-1.134c6.703 0 12.137 5.895 12.137 13.166 0 .743-.07 1.467-.18 2.177.054 0 .105-.01.16-.01 6.702 0 12.137 5.896 12.137 13.167 0 2.938-.898 5.64-2.397 7.83 4.1 2.115 6.94 6.635 6.94 11.886 0 5.656-3.294 10.464-7.91 12.328 1.783 2.292 2.86 5.25 2.86 8.482 0 6.778-4.72 12.354-10.79 13.08.117.735.19 1.484.19 2.254 0 7.272-5.435 13.167-12.138 13.167-2.106 0-4.086-.583-5.813-1.607-1.183 5.927-6.04 10.37-11.857 10.37-6.703 0-12.137-5.895-12.137-13.166v-88.72c0-7.27 5.434-13.166 12.137-13.166z" stroke-width="9" stroke="#9E8D40" fill="none" fill-rule="evenodd"/></svg><svg viewBox="0 0 244 123" id="visual-small"><title>visual-small</title><g fill="none" fill-rule="evenodd"><path d="M123.102 117.514h-2.266C64.263 116.274 5.58 68.534 5.58 61.554c0-6.684 63.563-54.297 115.255-55.666h2.266c51.69 1.37 115.257 48.98 115.257 55.666 0 6.98-58.647 54.72-115.258 55.96z" stroke="#0D4574" stroke-width="10"/><path d="M154.202 56.005c0 21.682-17.722 39.258-39.584 39.258-21.862 0-39.584-17.576-39.584-39.258 0-21.68 17.722-39.257 39.584-39.257 21.862 0 39.584 17.576 39.584 39.257" fill="#0D4574" transform="translate(5 5)"/></g></svg></svg>