<?xml version="1.0" encoding="utf-8"?>
<!-- Generator: Adobe Illustrator 18.0.0, SVG Export Plug-In . SVG Version: 6.00 Build 0)  -->
<!DOCTYPE svg PUBLIC "-//W3C//DTD SVG 1.1//EN" "http://www.w3.org/Graphics/SVG/1.1/DTD/svg11.dtd">
<svg version="1.1" id="Layer_1" xmlns="http://www.w3.org/2000/svg" xmlns:xlink="http://www.w3.org/1999/xlink" x="0px" y="0px"
	 viewBox="153.1 4.9 14 16" enable-background="new 153.1 4.9 14 16" xml:space="preserve">
<path d="M160.1,4.9c-1,0-1.9,0.8-1.9,1.8c0,0.7,0.5,1.4,1.1,1.6l0,0.9h-5v1h4.9l-0.1,7.1c0,0.1,0,1.6-2,0.6c-2-1-0.9-2.1-0.7-2.2
	c-1.2-0.4-2.2-1.4-3.1-2.4c-0.8,1.8,0.7,3.8,0.7,4.1c0.2-0.2,0.5-0.2,0.6-0.1c2,3.1,4.7,2.7,5.4,3.6c0.7-0.9,3.4-0.5,5.4-3.6
	c0.2,0,0.4-0.1,0.6,0.1c0.1-0.3,1.6-2.2,0.7-4.1c-0.9,1-1.9,2-3.1,2.4c0.1,0,1.3,1.2-0.7,2.2c-2,1-2-0.4-2-0.6l-0.2-7.1h4.9v-1h-5
	l0-0.9c0.6-0.3,1.1-0.9,1.1-1.6C161.9,5.7,161.1,4.9,160.1,4.9z M160.1,6c0.4,0,0.7,0.3,0.7,0.7c0,0.4-0.3,0.7-0.7,0.7
	s-0.7-0.3-0.7-0.7C159.4,6.3,159.7,6,160.1,6z"/>
</svg>
