<?xml version="1.0" encoding="UTF-8" standalone="no"?>
<svg width="223px" height="125px" viewBox="0 0 223 125" version="1.1" xmlns="http://www.w3.org/2000/svg" xmlns:xlink="http://www.w3.org/1999/xlink">
    <!-- Generator: Sketch 3.6.1 (26313) - http://www.bohemiancoding.com/sketch -->
    <title>audio-small</title>
    <desc>Created with Sketch.</desc>
    <defs></defs>
    <g id="Page-1" stroke="none" stroke-width="1" fill="none" fill-rule="evenodd">
        <g id="Desktop-HD-Copy-7" transform="translate(-607.000000, -477.000000)" stroke="#6A6A6A">
            <g id="Group-5" transform="translate(563.000000, 370.000000)">
                <g id="Group-2">
                    <g id="audio-small" transform="translate(49.000000, 110.000000)">
                        <path d="M145.149086,28.8724984 C145.149086,28.8724984 145.163354,28.6411777 145.190592,28.1928314 C145.211345,27.7470842 145.263227,27.0778137 145.357913,26.1798216 C145.562849,24.4150268 145.953264,21.8146184 147.092084,18.6099173 C148.246468,15.4507006 150.240051,11.5897245 153.877011,8.26546431 C154.351735,7.863902 154.779766,7.46233969 155.32064,7.04388318 C155.769423,6.69040438 156.237663,6.32782871 156.814855,5.93796239 C157.90698,5.1738244 159.028938,4.51365077 160.257255,3.90805842 C162.686651,2.68517774 165.397509,1.72220793 168.300332,1.09712227 C171.183699,0.501926354 174.35242,0.204328397 177.44202,0.332984282 C180.731367,0.461640167 183.954564,1.02434722 187.202405,1.92363886 C193.651394,3.75990922 200.236574,6.96720947 205.631051,12.343466 C206.321088,12.9932432 206.943677,13.7248923 207.557187,14.4708365 C208.203124,15.1855915 208.73881,16.0095089 209.300438,16.8126336 C209.893195,17.5936658 210.310848,18.5098516 210.812811,19.3675575 L210.993103,19.6950452 L211.0385,19.7769171 C210.995697,19.6755519 211.146156,20.0082378 211.143562,20.0017401 L211.208415,20.1550875 L211.469124,20.7671776 L211.99184,21.996556 C212.733759,23.5157351 213.281119,25.6132159 213.862202,27.5079662 C214.081405,28.4631387 214.244835,29.4105139 214.4368,30.3669859 L214.71048,31.801694 L214.857048,33.2519967 C215.379764,37.1233692 215.167046,41.0519221 214.744204,44.9362902 C214.217597,48.8167597 213.247395,52.6387491 211.888075,56.3281841 C211.559918,57.2547663 211.120215,58.1397629 210.738879,59.0455523 C210.353651,59.9513417 209.956751,60.8519329 209.456085,61.7044406 L208.030615,64.2918534 L206.370376,66.742813 C205.843769,67.5771269 205.217289,68.3412649 204.576541,69.0950064 C203.931901,69.8422502 203.350818,70.6401766 202.651702,71.3393369 C201.245687,72.7285605 199.878585,74.150273 198.275417,75.3146738 C196.786391,76.6103295 195.045735,77.5642024 193.390684,78.6090442 C192.905584,78.904043 192.599477,79.0443949 192.135129,79.286112 L190.887356,79.9111977 C190.088367,80.3049626 189.337368,80.6844325 188.64344,81.0729993 C187.241317,81.8423355 186.163459,82.6805481 185.500661,83.5902362 C185.335934,83.8189577 185.193257,84.0554766 185.073928,84.3010924 C184.999995,84.4167527 184.97146,84.5558051 184.911795,84.6805623 C184.891042,84.7325445 184.849536,84.8352093 184.841754,84.8430066 L184.739286,85.1548996 C184.501924,85.8865488 184.306068,86.6350921 184.119291,87.4304194 C183.745737,89.0054793 183.453898,90.6793054 183.089424,92.4103118 L182.794991,93.7267604 L182.492776,94.9717335 C182.263196,95.854131 182.02324,96.7196342 181.761233,97.5565472 C180.714505,100.928891 179.294223,104.192072 177.356414,107.095276 C175.434169,109.998481 172.991802,112.520916 170.258894,114.380578 C169.897014,114.620996 169.627226,114.832823 169.19271,115.090135 L168.244558,115.65804 C167.542848,116.03751 166.765909,116.474161 166.062901,116.775657 C164.634837,117.448826 163.173049,117.969948 161.715152,118.375409 C155.893941,119.998552 149.976748,119.642474 145.378666,117.481315 C140.698869,115.416323 137.777887,111.528057 136.611829,108.219391 C135.371838,104.86784 135.431503,102.104988 135.518406,100.320699 C135.549536,99.4162096 135.687024,98.7378422 135.745392,98.2790995 C135.812839,97.8242554 135.84786,97.5890361 135.84786,97.5890361 L137.14103,97.6735071 C137.14103,97.6735071 137.160486,97.9009292 137.198101,98.338879 C137.234418,98.7768288 137.277221,99.4253065 137.408225,100.254422 C137.649478,101.895759 138.087885,104.34282 139.47574,106.932832 C140.84414,109.509849 143.331903,112.106358 147.057063,113.477388 C148.902781,114.17135 151.018288,114.544322 153.276472,114.608 C155.537249,114.633992 157.943298,114.323398 160.344158,113.602145 C165.166632,112.171336 169.891826,109.057604 172.924355,104.193372 C174.473046,101.780099 175.644293,98.9821584 176.515918,95.9710909 C176.739012,95.2108516 176.932274,94.45711 177.113863,93.704668 L177.386246,92.4817873 L177.626202,91.3069902 C177.933606,89.7007409 178.199503,87.9801309 178.588622,86.1750498 C178.781884,85.2796569 179.02184,84.3413786 179.313679,83.4082985 C179.614597,82.450527 180.13861,81.1925583 180.837726,80.2633769 C182.237255,78.3023493 184.097241,77.0040945 185.789906,76.0411247 C186.644669,75.5498931 187.486462,75.1197406 188.289343,74.7116805 L189.44243,74.1216828 C189.771884,73.946243 190.277738,73.6941294 190.552715,73.5069936 C191.923708,72.6012042 193.380308,71.8162733 194.62419,70.6934583 C199.886367,66.5816682 203.736045,60.5907225 206.270503,54.1865184 C207.472878,50.9402315 208.341909,47.5678879 208.817931,44.1474607 C209.191484,40.7296327 209.401608,37.2702189 208.94634,33.9121703 L208.828307,32.6490034 L208.589648,31.4118276 C208.426218,30.5918088 208.287433,29.7548958 208.108438,28.9543703 C207.596099,27.4143983 207.369113,25.9835889 206.572718,24.2707762 L206.066864,23.0349 L205.815234,22.4189112 L205.751678,22.2642643 C205.728331,22.2057843 205.854146,22.4890872 205.784105,22.3396384 L205.749084,22.2759602 L205.609001,22.0212476 C205.215992,21.3519771 204.928044,20.6320239 204.45332,20.0069383 C204.012319,19.366258 203.611527,18.7021857 203.086217,18.1173862 C202.598522,17.5078952 202.106936,16.9036024 201.538823,16.3603886 C197.162539,11.8496353 191.381537,8.86195978 185.7043,7.17643773 C182.855953,6.32782871 179.96221,5.83399804 177.292858,5.64036443 C174.421164,5.43243573 171.8011,5.61827201 169.249781,6.05232317 C166.720511,6.48247568 164.339107,7.1543453 162.206738,8.09002447 C161.143148,8.54096984 160.110687,9.07768581 159.189774,9.60270578 C158.75007,9.84312335 158.257187,10.1602146 157.765601,10.4877023 C157.363512,10.7463136 156.925105,11.0932947 156.512639,11.3830953 C153.25961,13.9198255 151.135024,17.0127649 149.726415,19.7509261 C148.33856,22.5111796 147.573293,24.8958619 147.105054,26.522904 C146.867692,27.3260286 146.69648,27.9667089 146.595309,28.4085574 C146.486356,28.8452077 146.430583,29.0700306 146.430583,29.0700306 L145.149086,28.8724984 Z M187.081649,48.2961582 C187.090728,48.2766648 187.016796,47.9881638 186.984369,47.2318231 C186.94416,46.5157686 186.996043,45.485222 187.121858,44.2389493 C187.230811,42.9991744 187.418885,41.5332771 187.130937,40.0361904 C186.807969,38.4897207 186.116635,36.8067978 184.946686,35.28372 C184.359117,34.5364762 183.666487,33.82562 182.853229,33.2499174 C182.07629,32.6690166 181.023076,32.1764854 180.121618,31.9022795 C178.126738,31.2538018 175.789434,31.2784934 173.629827,31.9412661 C172.550672,32.2752516 171.515617,32.77558 170.603783,33.4292559 L169.948767,33.9503772 L169.348228,34.5247802 C169.154966,34.7223125 168.992833,34.9445363 168.809947,35.1485663 L168.743797,35.2252401 L168.726935,35.2447334 C168.745094,35.2239405 168.662082,35.3214071 168.763253,35.2018481 L168.724341,35.2538303 L168.571288,35.4669572 L168.263885,35.8906119 C168.010958,36.3168657 167.732089,36.7899035 167.49343,37.3370159 C167.25088,37.8594368 167.060212,38.4182452 166.894188,38.9861505 C166.560843,40.1232606 166.390928,41.340943 166.331263,42.5742202 C166.197666,45.0355762 166.614023,47.5905001 167.248286,50.1064374 C167.892925,52.6522645 168.756768,55.2123867 169.54149,57.8439843 C170.317132,60.4534895 171.072022,63.211144 171.267878,66.1598329 C171.362564,67.6309285 171.324949,69.148808 171.044784,70.665388 C170.918969,71.4217286 170.710142,72.1741706 170.466295,72.9058197 C170.345668,73.2709945 170.192615,73.6296715 170.051235,73.9844499 L169.785337,74.5289632 C169.716593,74.6654164 169.694543,74.7355923 169.586887,74.9266268 C169.374169,75.2957003 169.145886,75.6803684 168.929277,76.0143539 C168.737312,76.2911589 168.546644,76.5653649 168.35857,76.8356722 C167.973343,77.343798 167.594601,77.8415273 167.204186,78.2794772 C166.436325,79.1826675 165.643821,79.9520037 164.86299,80.6602608 C163.284466,82.0559822 161.686487,83.1398106 160.061269,83.8948517 C158.43216,84.643395 156.790081,85.0566533 155.387958,85.0384596 C154.761477,85.0865431 154.12462,84.9500899 153.770522,84.9098037 C153.394375,84.844826 153.201112,84.8110376 153.201112,84.8110376 C150.787281,84.392581 149.168549,82.0910702 149.5875,79.6712999 C149.891012,77.9143024 151.186776,76.5783605 152.797726,76.1391111 L155.673311,75.3632771 C155.701847,75.3554798 155.539714,75.3268896 155.50599,75.3658762 C155.437246,75.4230566 155.749838,75.4399508 156.406151,75.2333217 C157.066355,75.0201947 158.066389,74.5172672 159.165,73.7206403 C159.705875,73.3151794 160.289552,72.8538376 160.833021,72.3249189 C161.118374,72.0663076 161.36741,71.7869034 161.630713,71.5113979 L161.988702,71.0942409 C162.065229,70.9980739 162.117111,70.9369948 162.198826,70.8616207 C162.236441,70.8291318 162.327235,70.6549915 162.389494,70.5575249 L162.494556,70.3833847 L162.546439,70.2963145 L162.57238,70.2534292 L162.586648,70.2313368 C162.55033,70.3028123 162.685224,70.0390027 162.508824,70.3872833 C162.577568,70.2417332 162.665768,70.1039805 162.734513,69.9493335 C162.870704,69.6400395 163.010787,69.3151509 163.109363,68.9421788 C163.329864,68.2144284 163.449193,67.3437269 163.48162,66.3742594 C163.551661,64.4288264 163.193672,62.1182187 162.678739,59.5658939 C162.175479,57.0278641 161.520463,54.2884035 161.060006,51.3475119 C160.948459,50.6015677 160.847288,49.8790154 160.766871,49.0862872 C160.721473,48.6769276 160.686453,48.2948586 160.666997,47.958274 L160.626788,47.372175 L160.59955,46.7821773 C160.535994,45.2071174 160.609926,43.6112646 160.835615,42.0180109 C161.293477,38.8224066 162.370038,35.6709872 164.563369,32.9315265 L164.909684,32.536462 L165.082193,32.3402293 L165.124996,32.2908462 C165.237841,32.1530935 165.171691,32.2362649 165.205414,32.1985779 L165.232652,32.1712872 L165.345497,32.0595256 C165.650306,31.7671258 165.940848,31.4591314 166.259925,31.1901237 C166.585487,30.9315123 166.905861,30.6664032 167.236612,30.422087 L168.265182,29.7554156 C169.668602,28.940595 171.164113,28.3947822 172.662219,28.0828891 C175.657134,27.4694994 178.69096,27.7437054 181.25525,28.8431284 C182.626244,29.4370248 183.688537,30.0881015 184.687274,30.9653007 C185.67304,31.8178084 186.460357,32.7963729 187.095917,33.7866333 C188.351472,35.7788502 188.980547,37.8789301 189.188076,39.7476894 C189.36318,41.7022192 188.976655,43.2603849 188.765234,44.4728691 C188.527872,45.6866529 188.399463,46.6067374 188.376116,47.2253253 C188.339798,47.8010279 188.386493,48.2181849 188.374819,48.1999911 C188.402057,48.5573686 188.133566,48.8692616 187.776874,48.8965523 C187.418885,48.9225434 187.10759,48.6535356 187.081649,48.2961582 Z" id="Combined-Shape" stroke-width="5" fill="#6A6A6A"></path>
                        <path d="M23.1181211,76.0904507 C22.8321121,73.9857697 22.6843755,71.8371442 22.6843755,69.6539802 C22.6843755,43.472877 43.9198491,22.2489821 70.1152356,22.2489821 C72.2995906,22.2489821 74.4493883,22.3966382 76.5552175,22.6824912 L91.1896556,8.05603257 C101.53354,19.4128581 107.840239,34.5075243 107.840239,51.0752691 C107.840239,86.3799848 79.2039067,115 43.8806333,115 C27.3038498,115 12.2009488,108.696741 0.837927449,98.3584959 L23.1181211,76.0904507 Z" id="Combined-Shape" stroke-width="10" stroke-linecap="round" stroke-linejoin="round"></path>
                    </g>
                </g>
            </g>
        </g>
    </g>
</svg>