<?xml version="1.0" encoding="UTF-8" standalone="no"?>
<svg width="238px" height="154px" viewBox="0 0 238 154" version="1.1" xmlns="http://www.w3.org/2000/svg" xmlns:xlink="http://www.w3.org/1999/xlink">
    <!-- Generator: Sketch 3.6.1 (26313) - http://www.bohemiancoding.com/sketch -->
    <title>cognitive-small</title>
    <desc>Created with Sketch.</desc>
    <defs></defs>
    <g id="Page-1" stroke="none" stroke-width="1" fill="none" fill-rule="evenodd">
        <g id="Desktop-HD-Copy-7" transform="translate(-1022.000000, -463.000000)" stroke-width="9" stroke="#9E8D40">
            <g id="Group-6" transform="translate(972.000000, 371.000000)">
                <g id="Group-3">
                    <path d="M113.365636,230.816936 C103.705399,215.300821 119.710858,154.07417 113.365636,107.805094 C112.385372,100.670407 110.053933,97 105.636122,97 C101.221622,97 99.0127164,102.262912 99.0127164,108.636255 C99.0127164,115.009599 102.877473,140.496322 96.2540681,143.269076 C89.6306627,146.038504 75.4201465,94.0377419 63.1370413,98.6623222 C54.3047303,101.986967 81.0765347,149.087203 81.0765347,149.087203 C81.0765347,149.087203 59.2722843,148.256042 55.9605816,161.55462 C52.6488789,174.853197 62.86217,194.801063 68.932521,208.930802 C75.002872,223.060541 71.1414267,218.625465 68.932521,230.816936 C66.7236153,243.008407 123.022561,246.333051 113.365636,230.816936 Z M200.079961,111.421335 C194.419287,111.421335 189.67813,115.631651 188.33557,121.318424 C186.831902,120.594434 185.171511,120.183698 183.420154,120.183698 C176.717215,120.183698 171.283406,126.078578 171.283406,133.350244 C171.283406,134.092854 171.353548,134.816845 171.462049,135.526596 C171.409442,135.525501 171.357932,135.517834 171.304229,135.517834 C164.60129,135.517834 159.166386,141.412713 159.166386,148.68438 C159.166386,151.621962 160.063983,154.325151 161.563267,156.514646 C157.464348,158.628566 154.623599,163.14885 154.623599,168.399696 C154.623599,174.055802 157.916982,178.864149 162.533199,180.728341 C160.750059,183.019699 159.671627,185.976997 159.671627,189.210309 C159.671627,195.987997 164.394152,201.564145 170.463622,202.291422 C170.346354,203.025269 170.272924,203.774451 170.272924,204.544444 C170.272924,211.81611 175.707828,217.71099 182.410768,217.71099 C184.517218,217.71099 186.496536,217.127198 188.223781,216.103096 C189.40633,222.02974 194.262564,226.473353 200.079961,226.473353 C206.7829,226.473353 212.216709,220.578473 212.216709,213.306807 L212.216709,124.587881 C212.216709,117.316215 206.7829,111.421335 200.079961,111.421335 Z M237.94302,111.421335 C243.603694,111.421335 248.344851,115.631651 249.687411,121.318424 C251.191079,120.594434 252.85147,120.183698 254.602827,120.183698 C261.305766,120.183698 266.739575,126.078578 266.739575,133.350244 C266.739575,134.092854 266.669433,134.816845 266.560932,135.526596 C266.613539,135.525501 266.665049,135.517834 266.718751,135.517834 C273.421691,135.517834 278.856595,141.412713 278.856595,148.68438 C278.856595,151.621962 277.958998,154.325151 276.459714,156.514646 C280.558633,158.628566 283.399382,163.14885 283.399382,168.399696 C283.399382,174.055802 280.105999,178.864149 275.489782,180.728341 C277.272922,183.019699 278.351354,185.976997 278.351354,189.210309 C278.351354,195.987997 273.628829,201.564145 267.559359,202.291422 C267.676627,203.025269 267.750057,203.774451 267.750057,204.544444 C267.750057,211.81611 262.315153,217.71099 255.612213,217.71099 C253.505763,217.71099 251.526445,217.127198 249.7992,216.103096 C248.616651,222.02974 243.760417,226.473353 237.94302,226.473353 C231.24008,226.473353 225.806272,220.578473 225.806272,213.306807 L225.806272,124.587881 C225.806272,117.316215 231.24008,111.421335 237.94302,111.421335 Z" id="cognitive-small"></path>
                </g>
            </g>
        </g>
    </g>
</svg>