<?xml version="1.0" encoding="utf-8"?>
<!-- Generator: Adobe Illustrator 18.0.0, SVG Export Plug-In . SVG Version: 6.00 Build 0)  -->
<!DOCTYPE svg PUBLIC "-//W3C//DTD SVG 1.1//EN" "http://www.w3.org/Graphics/SVG/1.1/DTD/svg11.dtd">
<svg version="1.1" id="Layer_1" xmlns="http://www.w3.org/2000/svg" xmlns:xlink="http://www.w3.org/1999/xlink" x="0px" y="0px"
	 viewBox="0 0 244 123" enable-background="new 0 0 244 123" xml:space="preserve">
<title>eye-small</title>
<desc>Created with Sketch.</desc>
<path fill="#0D4574" d="M123.2,122.5l-2.4,0c-33.2-0.7-65.2-16.9-81.3-26.5C28.6,89.5,0.6,70.8,0.6,61.6c0-1.8,0-5.1,12.6-15.2
	c7.7-6.2,17.7-12.9,28.1-18.9c16.5-9.6,48.8-25.7,79.4-26.5l0.1,0l2.4,0c30.5,0.8,62.8,17,79.4,26.5c10.4,6,20.4,12.7,28.1,18.9
	c12.6,10.1,12.6,13.4,12.6,15.2c0,9.2-28,28-38.8,34.4C188.4,105.6,156.5,121.8,123.2,122.5L123.2,122.5z M120.9,112.5h2.2
	c28.4-0.6,55.8-13.2,73.8-23.6c20.4-11.8,32.7-23.1,35.9-27.2c-8.1-10.1-64-49.5-109.8-50.8h-2.1C75.2,12.1,19.3,51.5,11.1,61.6
	c3.2,4.2,15.5,15.4,35.9,27.2C65.1,99.3,92.6,111.9,120.9,112.5z"/>
<path id="Fill-23" fill="#0D4574" d="M159.2,61c0,21.7-17.7,39.3-39.6,39.3S80,82.7,80,61s17.7-39.3,39.6-39.3S159.2,39.3,159.2,61"
	/>
</svg>
