<?xml version="1.0" encoding="UTF-8" standalone="no"?>
<svg width="244px" height="123px" viewBox="0 0 244 123" version="1.1" xmlns="http://www.w3.org/2000/svg" xmlns:xlink="http://www.w3.org/1999/xlink">
    <!-- Generator: Sketch 3.6.1 (26313) - http://www.bohemiancoding.com/sketch -->
    <title>visual-small</title>
    <desc>Created with Sketch.</desc>
    <defs></defs>
    <g id="Page-1" stroke="none" stroke-width="1" fill="none" fill-rule="evenodd">
        <g id="Desktop-HD-Copy-7" transform="translate(-195.000000, -475.000000)">
            <g id="Group-4" transform="translate(148.000000, 372.000000)">
                <g id="Group">
                    <g id="visual-small" transform="translate(52.000000, 108.000000)">
                        <path d="M118.102017,112.51421 L115.836201,112.51421 C59.2629118,111.275003 0.579415686,63.5329386 0.579415686,56.5542488 C0.579415686,49.8690554 64.1437148,2.25743384 115.836201,0.887784448 L118.102017,0.887784448 C169.790707,2.25743384 233.358802,49.8690554 233.358802,56.5542488 C233.358802,63.5329386 174.713259,111.275003 118.102017,112.51421 Z" id="Combined-Shape" stroke="#0D4574" stroke-width="10"></path>
                        <path d="M154.202031,56.005476 C154.202031,77.686917 136.479655,95.2631292 114.61791,95.2631292 C92.7561657,95.2631292 75.0337892,77.686917 75.0337892,56.005476 C75.0337892,34.3240349 92.7561657,16.7478227 114.61791,16.7478227 C136.479655,16.7478227 154.202031,34.3240349 154.202031,56.005476" id="Fill-23" fill="#0D4574"></path>
                    </g>
                </g>
            </g>
        </g>
    </g>
</svg>